<svg width="84" height="36" viewBox="0 0 84 36" fill="none" xmlns="http://www.w3.org/2000/svg">
<g clip-path="url(#clip0_8204_61419)">
<g clip-path="url(#clip1_8204_61419)">
<path d="M73.9113 17.0815L73.8742 17.1187C74.1344 16.4125 74.6547 16.1523 75.1007 16.1523C75.7326 16.1523 76.2901 16.6355 76.2901 17.3417C76.2901 17.4904 76.2901 17.6762 76.2158 17.8992C74.9149 21.2444 72.1644 22.9541 69.4883 23.2143C68.2618 25.2957 66.2547 26.8196 63.3927 26.8196C59.3042 26.8196 57.483 23.586 57.483 20.055C57.483 15.7063 60.2335 10.8744 64.8423 10.8744C65.8458 10.8744 66.7007 11.0975 67.4069 11.3948C69.4883 12.1753 70.8264 14.8886 70.8264 17.7877C70.8264 18.7169 70.752 19.6461 70.529 20.5382C71.9043 20.055 73.2051 18.9399 73.9113 17.0815ZM66.1432 13.9222V13.8851C65.3255 13.8851 64.8423 14.9629 64.8423 16.2638C64.8423 18.1594 65.883 19.9063 67.5184 20.5382C67.7786 19.7205 67.8901 18.7913 67.8901 17.7134C67.8901 15.632 67.2582 13.9222 66.1432 13.9222ZM63.4299 24.1063C64.4706 24.1063 65.5113 23.6603 66.329 22.7311C63.9131 21.6532 62.3892 19.1258 62.3892 16.7098C62.3892 15.8921 62.5379 15.0373 62.7609 14.2939C61.2742 15.5205 60.4193 17.9364 60.4193 20.055C60.4193 22.8054 61.7202 24.1063 63.4299 24.1063Z" fill="#0D0107"/>
<path d="M58.0568 17.0815L58.0196 17.1187C58.2799 16.4125 58.7258 16.1152 59.1718 16.1152C59.8037 16.1152 60.4355 16.6727 60.4355 17.3789C60.4355 17.5647 60.3984 17.7134 60.324 17.8992C58.8745 21.4302 56.7188 25.5559 53.2621 27.9718L53.1878 28.7152C52.7789 33.1754 50.5117 36.0001 47.6497 36.0001C45.4939 36.0001 44.2302 34.5134 44.2302 32.7665C44.2302 29.6072 47.4638 28.455 50.4745 26.5223C50.5488 25.7417 50.586 24.8497 50.6231 23.8461C49.1364 25.4815 47.5382 26.1506 46.1258 26.1506C43.301 26.1506 40.9966 23.8461 40.9966 20.3152C40.9966 14.8886 44.5647 11.3205 48.5417 11.3205H48.5789C51.2922 11.3205 54.1913 12.77 54.1913 15.3718C54.1913 16.2267 53.8196 20.8727 53.5223 24.478C55.5293 22.5824 57.2019 19.4975 58.0568 17.0815ZM46.5346 23.4745C47.9099 23.4745 49.7683 22.6196 50.9205 18.4196C51.1063 17.4904 51.2178 16.6727 51.1807 15.7063C50.9577 14.7028 50.1028 14.1081 48.8762 14.1081C46.3488 14.1081 43.9329 16.524 43.9329 20.2037C43.9329 22.4338 44.9736 23.4745 46.5346 23.4745ZM47.947 33.2869H47.9842C48.7647 33.2869 49.6196 32.7665 50.1771 29.4214C48.5417 30.3877 47.0178 31.3541 47.0178 32.5063C47.0178 32.9895 47.3895 33.2869 47.947 33.2869Z" fill="#0D0107"/>
<path d="M41.6488 17.0815L41.6117 17.1187C41.8718 16.4125 42.3922 16.1523 42.8382 16.1523C43.4701 16.1523 44.0276 16.6355 44.0276 17.3417C44.0276 17.4904 44.0276 17.6762 43.9533 17.8992C42.6524 21.2444 39.9019 22.9541 37.2258 23.2143C35.9993 25.2957 33.9922 26.8196 31.1302 26.8196C27.0417 26.8196 25.2205 23.586 25.2205 20.055C25.2205 15.7063 27.9709 10.8744 32.5798 10.8744C33.5833 10.8744 34.4382 11.0975 35.1444 11.3948C37.2258 12.1753 38.5639 14.8886 38.5639 17.7877C38.5639 18.7169 38.4895 19.6461 38.2665 20.5382C39.6418 20.055 40.9426 18.9399 41.6488 17.0815ZM33.8807 13.9222V13.8851C33.063 13.8851 32.5798 14.9629 32.5798 16.2638C32.5798 18.1594 33.6205 19.9063 35.2559 20.5382C35.5161 19.7205 35.6276 18.7913 35.6276 17.7134C35.6276 15.632 34.9957 13.9222 33.8807 13.9222ZM31.1674 24.1063C32.2081 24.1063 33.2488 23.6603 34.0665 22.7311C31.6506 21.6532 30.1267 19.1258 30.1267 16.7098C30.1267 15.8921 30.2754 15.0373 30.4984 14.2939C29.0117 15.5205 28.1568 17.9364 28.1568 20.055C28.1568 22.8054 29.4577 24.1063 31.1674 24.1063Z" fill="#0D0107"/>
<path d="M27.1096 15.9083C26.5892 15.9083 26.1432 16.1685 25.8458 16.8747C24.8795 19.3278 22.8723 23.4907 20.828 23.4907C19.5408 23.4907 18.5447 23.1996 17.5381 22.9054C16.5102 22.605 15.4714 22.3013 14.1005 22.3013C13.6173 22.3013 12.9482 22.3757 12.3164 22.4872C14.2199 19.8914 14.9311 16.7477 15.6202 10.8054C14.3227 10.7228 13.2673 10.4831 12.498 10.241C11.6764 17.7775 10.7433 20.6511 7.33572 23.4907C6.8897 23.8624 6.66669 24.3828 6.66669 24.9032C6.66669 25.7209 7.3729 26.4271 8.26496 26.4271C8.56231 26.4271 8.89682 26.3156 9.23134 26.1669C11.127 25.312 12.2792 25.089 13.6916 25.089C14.5898 25.089 15.6645 25.3459 16.8152 25.6208C18.1406 25.9376 19.5667 26.2784 20.9396 26.2784C23.9502 26.2784 25.9202 23.3421 28.1131 17.6552C28.2247 17.4694 28.2618 17.2464 28.2618 17.0605C28.2618 16.3543 27.7043 15.9083 27.1096 15.9083Z" fill="#0D0107"/>
<path fill-rule="evenodd" clip-rule="evenodd" d="M12.6866 8.70287C13.3597 8.93784 14.4105 9.2114 15.7729 9.29233L15.9959 9.29222C20.1961 9.29222 22.9466 6.6904 22.9466 3.56821C22.9466 1.56109 21.3855 0 19.1925 0C16.2561 0 14.2118 2.00712 13.1711 5.98419C11.8702 5.27798 10.9782 4.01424 10.5321 2.41598C10.3091 1.63543 9.82592 1.15223 9.15687 1.15223C8.33916 1.15223 7.81879 1.78411 7.81879 2.63899C7.81879 5.16648 9.78875 7.58245 12.6879 8.69752L12.6866 8.70287ZM16.219 6.57889C16.7765 4.01424 17.6686 2.78767 18.858 2.78767C19.4899 2.78767 19.8987 3.15936 19.8987 3.8284C19.8987 5.05497 18.5978 6.50455 16.219 6.57889Z" fill="#0D0107"/>
</g>
</g>
<defs>
<clipPath id="clip0_8204_61419">
<rect width="84" height="36" fill="white"/>
</clipPath>
<clipPath id="clip1_8204_61419">
<rect width="70" height="36" fill="white" transform="translate(6.66669)"/>
</clipPath>
</defs>
</svg>
