<svg width="120" height="48" viewBox="0 0 120 48" fill="none" xmlns="http://www.w3.org/2000/svg">
<path fill-rule="evenodd" clip-rule="evenodd" d="M33.0594 14.3569L23.1941 33.6427H13.9277L18.0564 25.6498H17.8711C14.465 30.0714 9.38301 32.9822 2.14194 33.6427V25.7605C2.14194 25.7605 6.77423 25.4869 9.49742 22.6238H2.14194V14.3571H10.4087V21.1564L10.5942 21.1556L13.9724 14.3571H20.2243V21.1133L20.4098 21.113L23.9147 14.3569H33.0594Z" fill="#0D0107"/>
<path d="M86.8564 31.514H89.5188V16.2319H86.8564V31.514Z" fill="#0D0107"/>
<path fill-rule="evenodd" clip-rule="evenodd" d="M72.1787 31.358C72.7573 31.5985 73.3457 31.7188 73.9439 31.7188C74.9321 31.7188 75.8164 31.4783 76.5966 30.9971C77.3767 30.516 77.9814 29.8529 78.4105 29.0077C78.8396 28.156 79.0541 27.1904 79.0541 26.1112C79.0541 25.0319 78.8331 24.0664 78.391 23.2147C77.9488 22.363 77.3345 21.7031 76.5477 21.235C75.7611 20.7604 74.8671 20.5263 73.8658 20.5328C73.2287 20.5328 72.6176 20.6563 72.0324 20.9034C71.4473 21.1505 70.9597 21.5016 70.5695 21.9567C70.5394 21.9913 70.5102 22.0263 70.4818 22.0617V16.2418H67.8096V31.5141H70.4623L70.4569 30.0874C70.5255 30.1715 70.5989 30.2536 70.6768 30.334C71.0994 30.7696 71.6001 31.1109 72.1787 31.358ZM74.9094 28.8907C74.4737 29.1572 73.9764 29.2905 73.4172 29.2905C72.8646 29.2905 72.3574 29.1539 71.8959 28.8809C71.4342 28.6013 71.0669 28.221 70.7938 27.7398C70.5272 27.2588 70.3939 26.7126 70.3939 26.1014C70.3875 25.4903 70.5175 24.9442 70.784 24.463C71.0572 23.9754 71.4244 23.5983 71.8861 23.3318C72.3477 23.0587 72.8581 22.9254 73.4172 22.9319C73.9764 22.9254 74.4737 23.0554 74.9094 23.322C75.3515 23.5821 75.6895 23.9559 75.9236 24.4435C76.1641 24.9247 76.2845 25.4773 76.2845 26.1014C76.2845 26.7256 76.1641 27.2783 75.9236 27.7593C75.6895 28.2405 75.3515 28.6176 74.9094 28.8907Z" fill="#0D0107"/>
<path d="M36.9165 17.1585H39.9592L42.6811 27.0988L45.5766 17.1585H48.1123L51.2526 26.8993L53.8662 17.1585H56.6554L52.5399 31.5141H49.9165L46.7232 21.998L43.792 31.5141H41.1393L36.9165 17.1585Z" fill="#0D0107"/>
<path fill-rule="evenodd" clip-rule="evenodd" d="M61.149 31.7675C60.0892 31.7741 59.1335 31.54 58.2818 31.0654C57.4365 30.5842 56.7702 29.9178 56.2825 29.0661C55.8014 28.2144 55.5609 27.2424 55.5609 26.1501C55.5609 25.0904 55.8079 24.1314 56.3021 23.2732C56.7961 22.415 57.4658 21.7453 58.311 21.2642C59.1563 20.7831 60.0989 20.5425 61.1392 20.5425C62.3095 20.5425 63.3335 20.8026 64.2112 21.3227C65.0955 21.8428 65.7553 22.5808 66.191 23.5365C66.6331 24.4857 66.7924 25.5748 66.6689 26.8036H58.3152C58.3386 27.2931 58.4607 27.7385 58.6816 28.1397C58.9287 28.5817 59.2733 28.9263 59.7153 29.1734C60.1575 29.4205 60.6516 29.544 61.1978 29.544C61.6138 29.5375 62.0007 29.466 62.3583 29.3295C62.7159 29.1865 63.0182 28.9947 63.2652 28.754C63.5188 28.5135 63.6977 28.2405 63.8017 27.9349H66.5909C66.4218 28.6826 66.0837 29.349 65.5766 29.9341C65.0694 30.5128 64.4323 30.9646 63.6651 31.2897C62.8979 31.6147 62.0592 31.7741 61.149 31.7675ZM58.6914 24.1217C58.5356 24.3934 58.4276 24.6859 58.3675 24.9994H63.905C63.8648 24.6034 63.7425 24.2426 63.5383 23.9169C63.3042 23.5333 62.9857 23.2374 62.5826 23.0294C62.1795 22.8148 61.7244 22.7076 61.2173 22.7076C60.6776 22.7076 60.1868 22.8311 59.7446 23.0782C59.3025 23.3252 58.9514 23.6731 58.6914 24.1217Z" fill="#0D0107"/>
<path d="M81.0147 20.7669C81.0147 19.8956 81.2129 19.1219 81.6096 18.4458C82.0061 17.7631 82.562 17.2332 83.2772 16.8561C83.9988 16.4725 84.8409 16.2742 85.803 16.2612V18.6311C85.3544 18.6376 84.9709 18.7318 84.6523 18.9139C84.3402 19.0894 84.0997 19.3463 83.9306 19.6843C83.775 19.9956 83.691 20.3564 83.6787 20.7669H85.7445V23.0197H83.6771V31.5141H81.0147V23.0197H79.2983V20.7669H81.0147Z" fill="#0D0107"/>
<path fill-rule="evenodd" clip-rule="evenodd" d="M96.2865 31.748C95.2007 31.748 94.2287 31.5107 93.3705 31.0361C92.5188 30.5549 91.8492 29.8918 91.3616 29.0466C90.8804 28.1949 90.6399 27.2294 90.6399 26.1501C90.6399 25.0644 90.8804 24.0956 91.3616 23.2439C91.8492 22.3857 92.5188 21.7193 93.3705 21.2447C94.2287 20.77 95.2007 20.5327 96.2865 20.5327C97.3788 20.5327 98.3541 20.77 99.2122 21.2447C100.077 21.7193 100.75 22.3824 101.231 23.2341C101.712 24.0859 101.956 25.0578 101.962 26.1501C101.956 27.2294 101.712 28.1949 101.231 29.0466C100.756 29.8918 100.087 30.5549 99.2219 31.0361C98.3573 31.5107 97.3788 31.748 96.2865 31.748ZM96.2865 29.3002C96.8587 29.3002 97.3658 29.1701 97.8079 28.9101C98.25 28.6435 98.5913 28.2729 98.8319 27.7983C99.0725 27.3172 99.1927 26.7677 99.1927 26.1501C99.1927 25.526 99.0725 24.9733 98.8319 24.4922C98.5913 24.0111 98.25 23.6405 97.8079 23.3804C97.3658 23.1139 96.8587 22.9806 96.2865 22.9806C95.7209 22.9806 95.217 23.1139 94.7748 23.3804C94.3393 23.6405 94.0012 24.0111 93.7606 24.4922C93.5201 24.9733 93.4031 25.526 93.4095 26.1501C93.4095 26.7677 93.5298 27.3172 93.7704 27.7983C94.0175 28.2729 94.3555 28.6435 94.7846 28.9101C95.2202 29.1701 95.7209 29.3002 96.2865 29.3002Z" fill="#0D0107"/>
<path d="M104.839 20.7668H101.875L105.083 31.514H107.677L109.788 24.6498L112.066 31.514H114.621L117.84 20.7668H115.158L113.332 27.4563L111.315 20.7668H108.721L106.713 27.6036L104.839 20.7668Z" fill="#0D0107"/>
</svg>
